<svg xmlns="http://www.w3.org/2000/svg" xmlns:xlink="http://www.w3.org/1999/xlink" version="1.1" x="0px" y="0px" viewBox="0 0 100 125" style="enable-background:new 0 0 100 100;" xml:space="preserve"><path d="M88.19,29.7H64.47V19.25c0-1-0.81-1.81-1.81-1.81h-25.3c-1,0-1.81,0.81-1.81,1.81V29.7H11.81c-1,0-1.81,0.81-1.81,1.81  v49.23c0,1,0.81,1.81,1.81,1.81h76.37c1,0,1.81-0.81,1.81-1.81V31.51C90,30.51,89.19,29.7,88.19,29.7z M39.16,21.07h21.68v8.63  H39.16V21.07z M86.37,78.93H13.63V42.08l10.53,14.05c0.34,0.46,0.88,0.73,1.45,0.73h5.55v4.63c0,1,0.81,1.81,1.81,1.81h7.05  c1,0,1.81-0.81,1.81-1.81v-4.63h16.31v4.63c0,1,0.81,1.81,1.81,1.81h7.05c1,0,1.81-0.81,1.81-1.81v-4.63h5.55  c0.57,0,1.11-0.27,1.45-0.73l10.53-14.05V78.93z M34.79,59.67v-9.25h3.42v9.25H34.79z M61.78,59.67v-9.25h3.43v9.25H61.78z   M86.37,36.03l-12.89,17.2h-4.64V48.6c0-1-0.81-1.81-1.81-1.81h-7.05c-1,0-1.81,0.81-1.81,1.81v4.63H41.85V48.6  c0-1-0.81-1.81-1.81-1.81h-7.05c-1,0-1.81,0.81-1.81,1.81v4.63h-4.64l-12.89-17.2v-2.7h23.72h25.3h23.72V36.03z"/></svg>