<svg width="12" height="18" viewBox="0 0 12 18" fill="none" xmlns="http://www.w3.org/2000/svg">
<g clip-path="url(#clip0_12_4)">
<path d="M5.36248 8.98647L0.262483 4.21797C-0.090017 3.88838 -0.090017 3.35543 0.262483 3.02935L1.10998 2.23694C1.46248 1.90735 2.03248 1.90735 2.38123 2.23694L5.99623 5.61696L9.61123 2.23694C9.96373 1.90735 10.5337 1.90735 10.8825 2.23694L11.7375 3.02584C12.09 3.35543 12.09 3.88838 11.7375 4.21446L6.63748 8.98296C6.28498 9.31606 5.71498 9.31605 5.36248 8.98647ZM6.63748 15.7185L11.7375 10.95C12.09 10.6204 12.09 10.0874 11.7375 9.76135L10.89 8.96894C10.5375 8.63935 9.96748 8.63935 9.61873 8.96894L5.99998 12.3455L2.38498 8.96543C2.03248 8.63584 1.46248 8.63584 1.11373 8.96543L0.262483 9.75784C-0.090017 10.0874 -0.090017 10.6204 0.262483 10.9465L5.36248 15.715C5.71498 16.0481 6.28498 16.0481 6.63748 15.7185Z" fill="white"/>
</g>
<defs>
<clipPath id="clip0_12_4">
<rect width="12" height="17.952" fill="none"/>
</clipPath>
</defs>
</svg>
